<?xml version="1.0" encoding="utf-8"?>
<!-- Generator: Adobe Illustrator 23.0.2, SVG Export Plug-In . SVG Version: 6.00 Build 0)  -->
<svg version="1.1" id="Layer_1" xmlns="http://www.w3.org/2000/svg" xmlns:xlink="http://www.w3.org/1999/xlink" x="0px" y="0px"
	 viewBox="0 0 600 600" style="enable-background:new 0 0 600 600;" xml:space="preserve">
<style type="text/css">
	.st0{fill:#F1F0F3;}
	.st1{fill:url(#SVGID_1_);}
	.st2{fill:url(#SVGID_2_);}
	.st3{fill:url(#SVGID_3_);}
	.st4{fill:none;stroke:url(#SVGID_4_);stroke-width:6;stroke-miterlimit:10;}
	.st5{fill:none;stroke:url(#SVGID_5_);stroke-width:6;stroke-miterlimit:10;stroke-dasharray:11.6851,11.6851;}
	.st6{fill:none;stroke:url(#SVGID_6_);stroke-width:6;stroke-miterlimit:10;}
	.st7{fill:url(#SVGID_7_);}
	.st8{fill:none;}
	.st9{fill:#D1D3D4;}
	.st10{    font-family: Sulphur Point, sans-serif; text-align: center}
	.st11{font-size:10px;}
	.st12{fill:#F1F2F2;}
	.st13{    font-family: Sulphur Point, sans-serif; font-weight:300; font-weight: 600}
	.st14{font-size:14px;}
	.st15{fill:none;stroke:url(#SVGID_8_);stroke-width:6;stroke-miterlimit:10;}
	.st16{fill:none;stroke:url(#SVGID_9_);stroke-width:6;stroke-miterlimit:10;stroke-dasharray:11.6851,11.6851;}
	.st17{fill:none;stroke:url(#SVGID_10_);stroke-width:6;stroke-miterlimit:10;}
	.st18{fill:url(#SVGID_11_);}
	.st19{fill:none;stroke:url(#SVGID_12_);stroke-width:6;stroke-miterlimit:10;}
	.st20{fill:none;stroke:url(#SVGID_13_);stroke-width:6;stroke-miterlimit:10;stroke-dasharray:11.6851,11.6851;}
	.st21{fill:none;stroke:url(#SVGID_14_);stroke-width:6;stroke-miterlimit:10;}
	.st22{fill:url(#SVGID_15_);}
</style>
<rect class="st0" width="600" height="600"/>
<linearGradient id="SVGID_1_" gradientUnits="userSpaceOnUse" x1="530.1266" y1="491.4514" x2="450.1933" y2="353.0028">
	<stop  offset="0" style="stop-color:#246DAD"/>
	<stop  offset="1" style="stop-color:#1E1C54"/>
</linearGradient>
<circle class="st1" cx="490.2" cy="422.2" r="79.9"/>
<linearGradient id="SVGID_2_" gradientUnits="userSpaceOnUse" x1="340.7067" y1="176.8598" x2="260.7733" y2="38.4112">
	<stop  offset="0" style="stop-color:#246DAD"/>
	<stop  offset="1" style="stop-color:#1E1C54"/>
</linearGradient>
<circle class="st2" cx="300.7" cy="107.6" r="79.9"/>
<linearGradient id="SVGID_3_" gradientUnits="userSpaceOnUse" x1="149.9267" y1="491.4514" x2="69.9933" y2="353.0028">
	<stop  offset="0" style="stop-color:#246DAD"/>
	<stop  offset="1" style="stop-color:#1E1C54"/>
</linearGradient>
<circle class="st3" cx="110" cy="422.2" r="79.9"/>
<g>
	<g>
		<linearGradient id="SVGID_4_" gradientUnits="userSpaceOnUse" x1="75.5683" y1="118.6261" x2="211.3549" y2="118.6261">
			<stop  offset="0" style="stop-color:#246DAD"/>
			<stop  offset="1" style="stop-color:#1E1C54"/>
		</linearGradient>
		<path class="st4" d="M204.2,117.4c-1.9,0.8-3.7,1.6-5.5,2.4"/>
		<linearGradient id="SVGID_5_" gradientUnits="userSpaceOnUse" x1="75.5683" y1="223.9639" x2="211.3549" y2="223.9639">
			<stop  offset="0" style="stop-color:#246DAD"/>
			<stop  offset="1" style="stop-color:#1E1C54"/>
		</linearGradient>
		<path class="st5" d="M188,124.6c-102.2,47.3-119,94.5-105.4,201"/>
		<linearGradient id="SVGID_6_" gradientUnits="userSpaceOnUse" x1="75.5683" y1="334.425" x2="211.3549" y2="334.425">
			<stop  offset="0" style="stop-color:#246DAD"/>
			<stop  offset="1" style="stop-color:#1E1C54"/>
		</linearGradient>
		<path class="st6" d="M83.4,331.4c0.3,2,0.5,3.9,0.8,5.9"/>
		<g>
			<linearGradient id="SVGID_7_" gradientUnits="userSpaceOnUse" x1="75.5683" y1="125.5072" x2="211.3549" y2="125.5072">
				<stop  offset="0" style="stop-color:#246DAD"/>
				<stop  offset="1" style="stop-color:#1E1C54"/>
			</linearGradient>
			<polygon class="st7" points="176.2,103 174.2,108.7 202.1,118.4 190.4,145.6 195.9,148 210.2,114.9 			"/>
		</g>
	</g>
</g>
<rect x="227.6" y="111.3" class="st8" width="146.3" height="41"/>
<text transform="matrix(1 0 0 1 232.2616 118.6868)"><tspan x="0" y="0" class="st9 st10 st11">Desde la cual nos enviarás el </tspan><tspan x="54.4" y="12" class="st9 st10 st11">dinero</tspan></text>
<rect x="227.6" y="84.5" class="st8" width="146.3" height="17.3"/>
<text transform="matrix(1 0 0 1 240.7084 94.8949)" class="st12 st13 st14">Elegí la plataforma</text>
<rect x="417" y="423.3" class="st8" width="146.3" height="41"/>
<text transform="matrix(1 0 0 1 424.2217 430.6868)"><tspan x="0" y="0" class="st9 st10 st11">Dependiendo la cuenta y la </tspan><tspan x="1.4" y="12" class="st9 st10 st11">fecha de entrega varían las </tspan><tspan x="39.9" y="24" class="st9 st10 st11">comisiones</tspan></text>
<rect x="417" y="396.5" class="st8" width="146.3" height="17.3"/>
<text transform="matrix(1 0 0 1 437.2891 406.8949)" class="st12 st13 st14">Calculá el monto</text>
<rect x="36.8" y="423.3" class="st8" width="146.3" height="41"/>
<text transform="matrix(1 0 0 1 40.2917 430.6868)"><tspan x="0" y="0" class="st9 st10 st11">El efectivo por la oficina que </tspan><tspan x="35.7" y="12" class="st9 st10 st11">hayas elegido</tspan></text>
<rect x="36.8" y="396.5" class="st8" width="146.3" height="17.3"/>
<text transform="matrix(1 0 0 1 69.3918 406.8949)" class="st12 st13 st14">Pasá y retirá</text>
<g>
	<g>
		<linearGradient id="SVGID_8_" gradientUnits="userSpaceOnUse" x1="580.0315" y1="214.6432" x2="509.8043" y2="330.8592">
			<stop  offset="0" style="stop-color:#246DAD"/>
			<stop  offset="1" style="stop-color:#1E1C54"/>
		</linearGradient>
		<path class="st15" d="M514.5,325.4c0.3-2,0.5-4,0.8-5.9"/>
		<linearGradient id="SVGID_9_" gradientUnits="userSpaceOnUse" x1="489.8758" y1="160.1637" x2="419.6486" y2="276.3797">
			<stop  offset="0" style="stop-color:#246DAD"/>
			<stop  offset="1" style="stop-color:#1E1C54"/>
		</linearGradient>
		<path class="st16" d="M516.7,307.8c12.4-111.9-19.4-150.7-117.5-194.2"/>
		<linearGradient id="SVGID_10_" gradientUnits="userSpaceOnUse" x1="395.3353" y1="103.0346" x2="325.1081" y2="219.2506">
			<stop  offset="0" style="stop-color:#246DAD"/>
			<stop  offset="1" style="stop-color:#1E1C54"/>
		</linearGradient>
		<path class="st17" d="M393.8,111.3c-1.8-0.8-3.7-1.6-5.5-2.4"/>
		<g>
			<linearGradient id="SVGID_11_" gradientUnits="userSpaceOnUse" x1="574.1422" y1="211.0844" x2="503.9149" y2="327.3004">
				<stop  offset="0" style="stop-color:#246DAD"/>
				<stop  offset="1" style="stop-color:#1E1C54"/>
			</linearGradient>
			<polygon class="st18" points="541.3,308.8 537.5,304.2 514.7,323.1 497.6,299 492.7,302.4 513.6,331.8 			"/>
		</g>
	</g>
</g>
<g>
	<g>
		<linearGradient id="SVGID_12_" gradientUnits="userSpaceOnUse" x1="242.1186" y1="605.4871" x2="175.9404" y2="486.9187">
			<stop  offset="0" style="stop-color:#246DAD"/>
			<stop  offset="1" style="stop-color:#1E1C54"/>
		</linearGradient>
		<path class="st19" d="M178.4,493.7c1.6,1.2,3.2,2.5,4.8,3.6"/>
		<linearGradient id="SVGID_13_" gradientUnits="userSpaceOnUse" x1="334.0992" y1="554.1487" x2="267.9211" y2="435.5803">
			<stop  offset="0" style="stop-color:#246DAD"/>
			<stop  offset="1" style="stop-color:#1E1C54"/>
		</linearGradient>
		<path class="st20" d="M192.5,504.4c91.1,66.2,140.5,57.8,226.9-5.9"/>
		<linearGradient id="SVGID_14_" gradientUnits="userSpaceOnUse" x1="430.5533" y1="500.3135" x2="364.3752" y2="381.7451">
			<stop  offset="0" style="stop-color:#246DAD"/>
			<stop  offset="1" style="stop-color:#1E1C54"/>
		</linearGradient>
		<path class="st21" d="M424.1,494.9c1.6-1.2,3.2-2.4,4.8-3.6"/>
		<g>
			<linearGradient id="SVGID_15_" gradientUnits="userSpaceOnUse" x1="248.1271" y1="602.1334" x2="181.949" y2="483.565">
				<stop  offset="0" style="stop-color:#246DAD"/>
				<stop  offset="1" style="stop-color:#1E1C54"/>
			</linearGradient>
			<polygon class="st22" points="179.5,525.2 185.4,524.2 180.3,495.1 209.7,492.1 209.1,486.1 173.3,489.7 			"/>
		</g>
	</g>
</g>
</svg>
